<svg width="214" height="54" viewBox="0 0 214 54" fill="none" xmlns="http://www.w3.org/2000/svg"><g fill="#fff"><path d="M71.519 29.835c.28.425.666.617 1.21.63.741.019 1.213-.708 1.213-.708l12.276-15.726c1.01-1.057 2.013-.203 2.013-.203.97 1.01.247 1.942.247 1.942l-2.745 3.51v.022c-.486.499-.51 1.286-.058 1.815v.006l2.762 3.5 8.7-11.065-3.476-4.431-.642-.836c-.565-.81-1.824-.999-1.824-.999h-5.21a2.85 2.85 0 0 0-2.135.956L69.259 26.967l2.26 2.868ZM70.901 20.236l-3.49-4.47c-.711-1.145.325-1.963.325-1.963 1.304-.758 2.06.413 2.06.413l2.887 3.708 3.418-4.404-3.94-5.07a2.64 2.64 0 0 0-2.375-1.162h-4.703c-1.506 0-2.154.937-2.154.937l-4.162 5.282 8.7 11.112 3.434-4.383Z"/><path d="M84.353 24.052s-.401-.622-1.174-.61c-.806.012-1.132.547-1.132.547l-12.4 15.925c-1.004 1.105-2.086.216-2.086.216-.97-1.014-.174-1.954-.174-1.954l2.778-3.572v-.019c.485-.499.51-1.285.057-1.814v-.006l-2.762-3.5-8.726 11.19 4.867 6.16 7.648.02 15.387-19.673-2.282-2.91ZM84.995 33.647l3.519 4.528c.81 1.125-.212 1.955-.212 1.955-1.347.907-2.178-.448-2.178-.448l-2.947-3.741-3.416 4.405 4.93 6.309 7.59-.019 4.866-6.238-8.72-11.137-3.432 4.386Z"/><path fill-rule="evenodd" clip-rule="evenodd" d="M93.554 26.984c0-1.92 1.582-3.484 3.528-3.484s3.529 1.564 3.529 3.484-1.583 3.483-3.529 3.483c-1.945 0-3.528-1.563-3.528-3.483Zm1.785.727c.295.7.983 1.152 1.743 1.145a1.866 1.866 0 0 0 1.856-1.873 1.873 1.873 0 1 0-3.6.729ZM81.459 3.811c0 1.92-1.584 3.484-3.53 3.484-1.946 0-3.529-1.563-3.529-3.484 0-1.92 1.582-3.483 3.529-3.483 1.946 0 3.53 1.563 3.53 3.483Zm-1.784-.73a1.873 1.873 0 0 0-1.746-1.142 1.866 1.866 0 0 0-1.852 1.873 1.873 1.873 0 1 0 3.598-.732ZM58.727 23.487c1.946 0 3.53 1.563 3.53 3.483 0 1.921-1.583 3.484-3.53 3.484-1.946 0-3.53-1.564-3.53-3.484s1.585-3.483 3.53-3.483Zm.009 1.644a1.856 1.856 0 0 0-1.868 1.84 1.867 1.867 0 0 0 1.857 1.873 1.856 1.856 0 0 0 .01-3.713ZM.546 3.79h40.547v27.036c0 14.84-20.264 19.311-20.264 19.311h-.02S.547 45.666.547 30.826V3.79Zm39.56 27.036V4.776H1.534v26.05c0 3.164.997 6.085 2.97 8.683 1.603 2.114 3.85 4.027 6.68 5.688 4.312 2.53 8.662 3.688 9.64 3.93.98-.244 5.365-1.414 9.682-3.957 2.818-1.66 5.055-3.571 6.65-5.683 1.959-2.59 2.952-5.505 2.952-8.661Z"/><path d="M25.731 12.444V9.961h-2.554v2.318h-.998V9.961h-2.63v2.318h-.998V9.961h-2.596v2.485l1.263 2.177a.504.504 0 0 1 .066.253l.011 11.364h1.231l-.013-4.083c0-.963 1.094-1.84 2.299-1.84 1.205 0 2.3.877 2.3 1.839l.012 4.084h1.263l-.005-4.31v-7.055c0-.09.024-.176.07-.253l1.28-2.178ZM16.301 26.508V22.74l-.453.272a.497.497 0 0 1-.538-.016l-.548-.374a.32.32 0 0 1 0 .048l-.019 1.451a.496.496 0 0 1-.19.386c.057.019.11.047.158.084.663.533.712 1.296.57 1.915h1.02Z"/><path d="M20.813 21.322c-.765 0-1.302.544-1.302.842l.012 4.086h2.604l-.012-4.086c0-.297-.537-.842-1.302-.842Z"/><path d="M5.614 26.508a4.547 4.547 0 0 1-.32-1.146 8.838 8.838 0 0 1-.098-1.541.5.5 0 0 1 .35-.458l1.095-.337-1.235-.87a.5.5 0 0 1-.21-.407v-1.381c0-.186.103-.356.268-.442l.481-.253v-.47l-.439-.176a.505.505 0 0 1-.311-.463v-1.66a.5.5 0 0 1 .494-.5l1.54-.014c-.029-.407-.036-.964.062-1.425.134-.623.489-1.3.658-1.6l-.084-.576a.497.497 0 0 1 .116-.397.505.505 0 0 1 .377-.168h.83a.5.5 0 0 1 .267.077l2.028 1.286h.932a.5.5 0 0 1 .499.52l-.07 1.6a.505.505 0 0 1-.163.345h.62a.505.505 0 0 1 .358.154l.282.293.215-.164.36-.757a.5.5 0 0 1 .45-.286h1.324v-.284l-1.262-2.177a.491.491 0 0 1-.069-.253V9.463a.498.498 0 0 1 .5-.498h10.776c.275 0 .498.223.498.498v3.115a.49.49 0 0 1-.069.253l-1.292 2.177v.28h1.313c.192 0 .368.111.45.285l.36.758.214.163.284-.293a.498.498 0 0 1 .357-.153h.62a.505.505 0 0 1-.161-.346l-.071-1.6a.5.5 0 0 1 .498-.52h.933l2.028-1.285a.498.498 0 0 1 .266-.077h.83a.499.499 0 0 1 .494.568l-.084.576c.168.302.523.978.656 1.6.1.461.091 1.018.064 1.425l1.54.015a.5.5 0 0 1 .494.499v1.66a.498.498 0 0 1-.31.463l-.438.177v.47l.48.252a.498.498 0 0 1 .268.442v1.381a.498.498 0 0 1-.21.407l-1.231.871 1.09.337a.5.5 0 0 1 .35.458 8.69 8.69 0 0 1-.097 1.541c-.057.395-.165.78-.322 1.146h1.837V7.24H3.808v19.268h1.806Z"/><path d="M26.945 24.593a.483.483 0 0 1 .158-.084.5.5 0 0 1-.192-.386l-.018-1.456v-.048l-.548.374a.5.5 0 0 1-.538.017l-.428-.258v3.753h.992c-.143-.622-.094-1.384.57-1.916M33.567 36.811a.498.498 0 0 1-.499-.5v-3.257c0-.242-.146-.543-.372-.765a1.378 1.378 0 0 0-1.024-.4c-.765.013-1.224.605-1.288 1.19v3.233a.496.496 0 0 1-.498.5h-2.964a.498.498 0 0 1-.498-.5v-3.258c0-.242-.147-.543-.373-.765a1.38 1.38 0 0 0-1.024-.4c-.32.003-.627.126-.861.345l2.436 12.426c3.43-1.52 7.493-3.998 9.682-7.847l-2.717-.002ZM25.643 44.97l-3.425-17.464h-2.779l-3.423 17.47a.473.473 0 0 1-.02.07c2.378.976 4.308 1.472 4.846 1.641.547-.168 2.464-.664 4.825-1.63a.571.571 0 0 1-.024-.084M17.498 32.217a1.29 1.29 0 0 0-.847-.325h-.027a1.387 1.387 0 0 0-.997.4c-.226.222-.372.522-.372.765v3.26a.498.498 0 0 1-.498.497H11.79a.5.5 0 0 1-.5-.499v-3.234c-.063-.585-.521-1.179-1.286-1.189h-.028a1.387 1.387 0 0 0-.997.4c-.225.222-.372.522-.372.765v3.26a.498.498 0 0 1-.498.497H5.407c2.19 3.836 6.235 6.313 9.657 7.834l2.434-12.43Z"/><path d="M37.854 27.506h-14.62l.718 3.662a2.407 2.407 0 0 1 2.796.413c.421.412.674.963.674 1.474v2.76h1.965V33.01a2.318 2.318 0 0 1 2.273-2.116c.65-.016 1.277.231 1.74.686.421.413.67.964.67 1.475v2.76h2.724a12.09 12.09 0 0 0 1.087-5.072v-3.24h-.024M7.613 35.817v-2.76c0-.511.253-1.063.674-1.476a2.42 2.42 0 0 1 1.736-.686 2.32 2.32 0 0 1 2.266 2.116V35.817h1.966v-2.76c0-.511.253-1.063.674-1.476a2.42 2.42 0 0 1 1.74-.686c.361.006.717.096 1.037.264l.716-3.653H3.809v3.236c-.01 1.75.362 3.482 1.09 5.075h2.714ZM8.785 25.48h.81c.06.103.1.218.113.337 0 .067.007.135.013.203-.004.165-.027.33-.068.49h-2.83c-.41-.28-.613-1.388-.63-2.3l1.239-.382a.505.505 0 0 0 .352-.478v-.477a.496.496 0 0 0-.21-.407l-1.38-.977v-.82l.48-.253a.497.497 0 0 0 .268-.442v-1.105a.5.5 0 0 0-.311-.463l-.439-.177v-.83l1.308-.013.621 1.018v1.42l-.427 1.347a.5.5 0 0 0 .476.65h.377a.5.5 0 0 0 .492-.42c.036-.22.155-.857.266-1.145.084-.223.442-.7.666-.968a.5.5 0 0 0-.006-.648l-1.71-1.968c-.034-.296-.096-1 .011-1.497.116-.54.492-1.228.626-1.448a.496.496 0 0 0 .068-.33l-.026-.179h.11l2.028 1.284a.5.5 0 0 0 .267.077h.556l-.033.744-.654.238a.5.5 0 0 0-.329.472v.512a.5.5 0 0 0 .498.495l1.707.006.446.461a.496.496 0 0 0 .662.05s.776-.617.81-.69l.278-.582h.995V18.1s-1.82.624-1.97.699c-.12.059-.185.622-.164.757.02.136.013.19.21.337 0 0 .529.42.691.475l.53-.505.7.047v1.683l-.673.402-2.092-1.431a.5.5 0 0 0-.674.104l-.326.421a.499.499 0 0 0 .051.674l1.197 1.12-.012.913-1.195.526a.505.505 0 0 0-.296.456v.204a.5.5 0 0 0 .499.498h1.444c.253.31.152.748.047 1.028h-3.33c-.114-.119-.168-.328-.196-.563a2.11 2.11 0 0 0-.011-.192 3.67 3.67 0 0 1 .075-.832l.775-.99c.063-.082.1-.181.105-.284l.022-.476a.498.498 0 0 0-.687-.485l-1.249.51a.497.497 0 0 0-.305.39l-.074.498-.726.22a.5.5 0 0 0-.355.477v.202a.5.5 0 0 0 .5.498M32.867 25.481h-.809a.875.875 0 0 0-.114.337c0 .067-.005.134-.011.203.003.165.026.33.067.49h2.833c.408-.28.612-1.388.63-2.3l-1.24-.382a.505.505 0 0 1-.352-.478v-.477c0-.162.08-.314.212-.407l1.376-.977v-.82l-.48-.253a.497.497 0 0 1-.268-.442v-1.106a.5.5 0 0 1 .311-.463l.438-.176v-.83l-1.306-.013-.622 1.018-.004 1.42.427 1.347a.5.5 0 0 1-.476.65h-.377a.5.5 0 0 1-.492-.42c-.037-.22-.155-.857-.267-1.145-.084-.223-.44-.7-.665-.968a.5.5 0 0 1 .006-.649l1.715-1.968c.034-.296.094-.999-.012-1.497-.116-.54-.491-1.228-.625-1.447a.505.505 0 0 1-.07-.331l.026-.179h-.11l-2.027 1.285a.5.5 0 0 1-.267.077h-.556l.033.745.654.237a.5.5 0 0 1 .328.472v.512a.498.498 0 0 1-.496.495l-1.708.006-.446.461a.496.496 0 0 1-.662.05s-.777-.617-.81-.69l-.277-.582h-.999V18.1s1.82.625 1.97.699c.12.058.184.622.164.757-.02.136-.014.19-.21.337 0 0-.53.42-.691.475l-.53-.505-.7.047v1.683l.668.402 2.093-1.431a.498.498 0 0 1 .674.104l.328.421a.5.5 0 0 1-.052.674l-1.197 1.12.012.913 1.2.532c.18.082.296.26.297.457v.203a.498.498 0 0 1-.5.499H27.46c-.253.31-.152.748-.047 1.028h3.33c.112-.119.168-.329.194-.563 0-.064.006-.128.012-.192a3.629 3.629 0 0 0-.075-.832l-.775-.998a.505.505 0 0 1-.105-.283l-.018-.474a.498.498 0 0 1 .687-.485l1.25.507a.5.5 0 0 1 .304.39l.074.498.726.22c.21.063.355.257.355.477v.202a.498.498 0 0 1-.5.498M111.285 21.06v-.018c0-1.895 1.392-3.574 3.465-3.574 1.165 0 1.885.337 2.576.919l-.505.59c-.534-.464-1.126-.79-2.105-.79-1.531 0-2.626 1.292-2.626 2.832v.02c0 1.649 1.056 2.871 2.733 2.871a3.252 3.252 0 0 0 1.994-.69v-1.718h-2.105v-.7h2.852v2.754a4.192 4.192 0 0 1-2.778 1.055c-2.172 0-3.514-1.578-3.514-3.553"/><path fill-rule="evenodd" clip-rule="evenodd" d="M120.126 21.041v.019c0 1.905 1.41 3.553 3.515 3.553 2.105 0 3.536-1.666 3.536-3.572v-.02c0-1.905-1.41-3.553-3.515-3.553-2.105 0-3.536 1.668-3.536 3.573Zm6.239 0v.018c0 1.571-1.127 2.834-2.706 2.834s-2.724-1.283-2.724-2.852v-.02c0-1.57 1.127-2.833 2.706-2.833 1.578 0 2.724 1.283 2.724 2.853ZM132.91 17.587h-2.94l.001 6.91h3.069c1.511 0 2.506-.702 2.506-1.885v-.021c0-.948-.66-1.42-1.48-1.667.543-.238 1.095-.701 1.095-1.6v-.02a1.533 1.533 0 0 0-.444-1.105c-.395-.385-1.017-.612-1.807-.612Zm1.461 1.825c0-.681-.542-1.126-1.529-1.126h-2.105v2.38h2.044c.937 0 1.588-.426 1.588-1.235l.002-.02Zm-1.454 1.945h-2.182v2.441h2.321c1.045 0 1.697-.464 1.697-1.233v-.02c0-.75-.632-1.185-1.836-1.185v-.003Z"/><path d="M138.331 17.587h.78v6.908h-.78zM142.267 17.587h4.993v.71h-4.215v2.36h3.772v.71h-3.772v2.417h4.265v.712h-5.043v-6.91Z"/><path fill-rule="evenodd" clip-rule="evenodd" d="M152.867 17.587h-2.971v6.909h.779V21.81h1.975l2.002 2.686h.958l-2.121-2.823c1.085-.198 1.875-.87 1.875-2.014v-.02a1.91 1.91 0 0 0-.533-1.362c-.435-.434-1.115-.69-1.964-.69Zm1.707 2.102c0 .888-.741 1.421-1.777 1.421h-2.123v-2.802h2.132c1.116 0 1.768.513 1.768 1.362v.02Z"/><path d="M158.174 17.587h.73l4.353 5.537v-5.537h.76v6.909h-.622l-4.462-5.666v5.666h-.759v-6.91Z"/><path fill-rule="evenodd" clip-rule="evenodd" d="M166.808 21.041v.019h-.001c0 1.905 1.409 3.553 3.514 3.553 2.104 0 3.536-1.666 3.536-3.572v-.02c0-1.905-1.408-3.553-3.513-3.553-2.104 0-3.536 1.668-3.536 3.573Zm6.239 0v.018c0 1.571-1.127 2.834-2.706 2.834-1.58 0-2.723-1.283-2.723-2.852v-.02c0-1.57 1.126-2.833 2.704-2.833 1.579 0 2.725 1.283 2.725 2.853ZM182.64 17.587h-2.399v6.906h2.399c2.17 0 3.671-1.509 3.671-3.451v-.02c0-1.944-1.501-3.435-3.671-3.435Zm-1.619 6.187v-5.466h1.618c1.747 0 2.863 1.203 2.863 2.734v.018c0 1.53-1.116 2.714-2.863 2.714h-1.618Z"/><path d="M188.789 17.587h4.993v.71h-4.214v2.359h3.77v.71h-3.77v2.418h4.264v.712h-5.043v-6.91ZM200.041 17.587h.779v6.187h3.89v.721h-4.669v-6.908Z"/><path fill-rule="evenodd" clip-rule="evenodd" d="M210.226 17.538h-.73l-3.148 6.957h.799l.82-1.826h3.76l.807 1.828h.842l-3.15-6.959Zm-.375.909 1.57 3.512h-3.149l1.579-3.512Z"/><path d="M111.134 32.905v-.02c0-1.963 1.48-3.573 3.602-3.573 1.303 0 2.083.435 2.725 1.066l-.968 1.115c-.533-.483-1.076-.78-1.768-.78-1.166 0-2.004.969-2.004 2.153v.02c0 1.183.82 2.17 2.004 2.17.789 0 1.274-.315 1.815-.809l.968.977c-.711.758-1.5 1.234-2.832 1.234-2.034 0-3.543-1.57-3.543-3.553M118.767 29.432h1.52v6.908h-1.52zM122.041 33.38v-3.948h1.521v3.91c0 1.123.562 1.705 1.49 1.705.928 0 1.49-.562 1.49-1.657v-3.957h1.516v3.9c0 2.092-1.179 3.114-3.031 3.114s-2.99-1.035-2.99-3.069"/><path fill-rule="evenodd" clip-rule="evenodd" d="M132.485 29.432h-2.694v6.906h2.694c2.171 0 3.672-1.507 3.672-3.451v-.02c0-1.944-1.501-3.435-3.672-3.435Zm2.083 3.474c0 1.22-.839 2.062-2.083 2.062h-1.173v-4.164h1.173c1.241 0 2.083.858 2.083 2.082v.02ZM140.925 29.381h-1.402l-2.963 6.958h1.556l.633-1.55h2.914l.632 1.55h1.589l-2.959-6.958Zm-.722 1.825.919 2.241h-1.837l.918-2.241ZM147.681 29.432h-2.694v6.906h2.694c2.172 0 3.672-1.508 3.672-3.451v-.02c0-1.944-1.5-3.435-3.672-3.435Zm2.083 3.474c0 1.22-.838 2.062-2.083 2.062h-1.174v-4.165h1.174c1.241 0 2.083.86 2.083 2.083v.02ZM158.459 29.432h-2.694v6.906h2.694c2.172 0 3.671-1.507 3.671-3.451v-.02c0-1.944-1.499-3.435-3.671-3.435Zm2.083 3.474c0 1.22-.84 2.062-2.083 2.062h-1.174v-4.164h1.174c1.241 0 2.083.858 2.083 2.082v.02Z"/><path d="M163.574 29.432h5.211v1.353h-3.701v1.401h3.256v1.352h-3.256v1.45h3.75v1.352h-5.26v-6.908ZM173.246 29.432h1.638l1.816 2.922 1.815-2.922h1.639v6.908h-1.511v-4.51l-1.943 2.952h-.039l-1.925-2.922v4.48h-1.49v-6.908Z"/><path fill-rule="evenodd" clip-rule="evenodd" d="m186.151 27.705-1.293-.564-1.116 1.746h1.146l1.263-1.182Zm1.026 1.727h-5.21l.004 6.908h5.261v-1.352h-3.751v-1.45h3.257v-1.352h-3.261v-1.402h3.7v-1.352Z"/><path d="m190.613 32.827-2.31-3.395h1.776l1.451 2.24 1.46-2.24h1.729l-2.31 3.375 2.407 3.533h-1.775l-1.55-2.368-1.559 2.368h-1.728l2.409-3.513ZM195.982 29.432h1.52v6.908h-1.52zM198.973 32.905v-.02c0-1.963 1.48-3.573 3.603-3.573 1.302 0 2.083.435 2.724 1.066l-.966 1.115c-.533-.483-1.076-.78-1.768-.78-1.165 0-2.003.969-2.003 2.153v.02c0 1.183.818 2.17 2.003 2.17.789 0 1.274-.315 1.815-.809l.968.977c-.711.758-1.5 1.234-2.832 1.234-2.034 0-3.544-1.57-3.544-3.553Z"/><path fill-rule="evenodd" clip-rule="evenodd" d="M206.065 32.886v.019c0 1.964 1.53 3.552 3.662 3.552 2.132 0 3.681-1.608 3.681-3.571v-.02c0-1.965-1.53-3.554-3.662-3.554-2.131 0-3.681 1.61-3.681 3.574Zm5.754 0v.019c0 1.184-.849 2.15-2.073 2.15-1.225 0-2.092-.986-2.092-2.17v-.019c0-1.184.849-2.153 2.072-2.153 1.224 0 2.093.987 2.093 2.172ZM81.459 50.17c0 1.92-1.584 3.483-3.53 3.483-1.946 0-3.529-1.563-3.529-3.483 0-1.92 1.582-3.484 3.529-3.484 1.946 0 3.53 1.564 3.53 3.484Zm-1.784-.731a1.873 1.873 0 0 0-1.746-1.142 1.866 1.866 0 0 0-1.852 1.873 1.873 1.873 0 1 0 3.598-.731Z"/></g></svg>