<svg width="29" height="23" viewBox="0 0 29 23" fill="none" xmlns="http://www.w3.org/2000/svg"><path d="M28.158 2.92c-1.018.44-2.104.732-3.235.873a5.513 5.513 0 0 0 2.47-3.055 11.326 11.326 0 0 1-3.56 1.338 5.667 5.667 0 0 0-4.1-1.75c-3.109 0-5.61 2.485-5.61 5.53 0 .438.037.86.13 1.26A15.973 15.973 0 0 1 2.68 1.335a5.5 5.5 0 0 0-.768 2.794c0 1.914 1 3.61 2.493 4.593a5.61 5.61 0 0 1-2.536-.68v.06c0 2.686 1.946 4.917 4.498 5.431a5.686 5.686 0 0 1-1.472.182c-.36 0-.723-.02-1.063-.094a5.657 5.657 0 0 0 5.246 3.85 11.392 11.392 0 0 1-6.961 2.358c-.46 0-.902-.02-1.343-.076 2.486 1.58 5.433 2.48 8.612 2.48 10.33 0 15.978-8.425 15.978-15.728 0-.245-.009-.48-.02-.715a11.106 11.106 0 0 0 2.813-2.87Z" fill="#fff"/></svg>